<!--
  - Copyright ©2024 Ewsgit<https://github.com/ewsgit> and YourDash<https://github.com/yourdash> contributors.
  - YourDash is licensed under the MIT License. (https://ewsgit.mit-license.org)
  -->

<svg width="16" height="16" viewBox="0 0 16 16" fill="none" xmlns="http://www.w3.org/2000/svg">
<g filter="url(#filter0_dii_1308_67)">
<path fill-rule="evenodd" clip-rule="evenodd" d="M2 9.5C2 10.8807 3.11929 12 4.5 12H11.5C12.8807 12 14 10.8807 14 9.5C14 8.11929 12.8807 7 11.5 7C11.3059 7 11.117 7.02212 10.9356 7.06396C10.7489 6.4482 10.1768 6 9.5 6C9.31255 6 9.13314 6.03438 8.96772 6.09719C8.77509 4.908 7.74358 4 6.5 4C5.11929 4 4 5.11929 4 6.5C4 6.68502 4.0201 6.86534 4.05823 7.03891C2.88823 7.24752 2 8.27003 2 9.5Z" fill="url(#paint0_linear_1308_67)"/>
</g>
<defs>
<filter id="filter0_dii_1308_67" x="1.75" y="3.75" width="13" height="9" filterUnits="userSpaceOnUse" color-interpolation-filters="sRGB">
<feFlood flood-opacity="0" result="BackgroundImageFix"/>
<feColorMatrix in="SourceAlpha" type="matrix" values="0 0 0 0 0 0 0 0 0 0 0 0 0 0 0 0 0 0 127 0" result="hardAlpha"/>
<feOffset dx="0.25" dy="0.25"/>
<feGaussianBlur stdDeviation="0.25"/>
<feComposite in2="hardAlpha" operator="out"/>
<feColorMatrix type="matrix" values="0 0 0 0 0 0 0 0 0 0 0 0 0 0 0 0 0 0 0.25 0"/>
<feBlend mode="normal" in2="BackgroundImageFix" result="effect1_dropShadow_1308_67"/>
<feBlend mode="normal" in="SourceGraphic" in2="effect1_dropShadow_1308_67" result="shape"/>
<feColorMatrix in="SourceAlpha" type="matrix" values="0 0 0 0 0 0 0 0 0 0 0 0 0 0 0 0 0 0 127 0" result="hardAlpha"/>
<feOffset dx="0.2" dy="0.2"/>
<feGaussianBlur stdDeviation="0.1"/>
<feComposite in2="hardAlpha" operator="arithmetic" k2="-1" k3="1"/>
<feColorMatrix type="matrix" values="0 0 0 0 1 0 0 0 0 1 0 0 0 0 1 0 0 0 0.1 0"/>
<feBlend mode="normal" in2="shape" result="effect2_innerShadow_1308_67"/>
<feColorMatrix in="SourceAlpha" type="matrix" values="0 0 0 0 0 0 0 0 0 0 0 0 0 0 0 0 0 0 127 0" result="hardAlpha"/>
<feOffset dx="-0.2" dy="-0.2"/>
<feGaussianBlur stdDeviation="0.1"/>
<feComposite in2="hardAlpha" operator="arithmetic" k2="-1" k3="1"/>
<feColorMatrix type="matrix" values="0 0 0 0 0 0 0 0 0 0 0 0 0 0 0 0 0 0 0.1 0"/>
<feBlend mode="normal" in2="effect2_innerShadow_1308_67" result="effect3_innerShadow_1308_67"/>
</filter>
<linearGradient id="paint0_linear_1308_67" x1="2" y1="4" x2="14" y2="12" gradientUnits="userSpaceOnUse">
<stop stop-color="white"/>
<stop offset="1" stop-color="#D2D2D2"/>
</linearGradient>
</defs>
</svg>
