

<svg width="16" height="16" viewBox="0 0 16 16" fill="none" xmlns="http://www.w3.org/2000/svg">
<path fill-rule="evenodd" clip-rule="evenodd" d="M4.5 12C3.11929 12 2 10.8807 2 9.5C2 8.27003 2.88822 7.24752 4.05823 7.03891C4.0201 6.86534 4 6.68502 4 6.5C4 5.11929 5.11929 4 6.5 4C7.74358 4 8.77509 4.908 8.96772 6.09719C9.13314 6.03438 9.31255 6 9.5 6C10.1768 6 10.7489 6.4482 10.9356 7.06396C11.117 7.02212 11.3059 7 11.5 7C12.8807 7 14 8.11929 14 9.5C14 10.8807 12.8807 12 11.5 12H4.5ZM7.56111 7.81633L7.68889 9.63946H8.31111L8.43889 7.81633V7H7.56111V7.81633ZM7.61111 10.8966C7.68889 10.9655 7.79074 11 7.91667 11H8.07778C8.20741 11 8.30926 10.9655 8.38333 10.8966C8.46111 10.8277 8.5 10.7351 8.5 10.619C8.5 10.5029 8.46111 10.4104 8.38333 10.3415C8.30926 10.2726 8.20926 10.2381 8.08333 10.2381H7.91667C7.79074 10.2381 7.68889 10.2726 7.61111 10.3415C7.53704 10.4104 7.5 10.5029 7.5 10.619C7.5 10.7315 7.53704 10.824 7.61111 10.8966Z" fill="white"/>
</svg>
