

<svg width="16" height="16" viewBox="0 0 16 16" fill="none" xmlns="http://www.w3.org/2000/svg">
<path d="M2 5C2 3.34315 3.34315 2 5 2V2H9.25C9.66421 2 10 2.33579 10 2.75V2.75C10 3.16421 9.66421 3.5 9.25 3.5H5V3.5C4.17157 3.5 3.5 4.17157 3.5 5V5V11V11C3.5 11.8284 4.17157 12.5 5 12.5V12.5H9.25C9.66421 12.5 10 12.8358 10 13.25V13.25C10 13.6642 9.66421 14 9.25 14H5V14C3.34315 14 2 12.6569 2 11V11V5V5Z" fill="white"/>
<path d="M5.62404 7.58397L8.72265 5.51823C9.05493 5.29672 9.5 5.53491 9.5 5.93426V6.55248C9.5 6.80725 9.69157 7.02129 9.94478 7.04942L13.5552 7.45058C13.8084 7.47871 14 7.69275 14 7.94752V8.05248C14 8.30725 13.8084 8.52129 13.5552 8.54942L9.94478 8.95058C9.69157 8.97871 9.5 9.19275 9.5 9.44752V10.0657C9.5 10.4651 9.05493 10.7033 8.72265 10.4818L5.62404 8.41603C5.32717 8.21811 5.32717 7.78189 5.62404 7.58397Z" fill="white"/>
</svg>
