

<svg width="16" height="16" viewBox="0 0 16 16" fill="none" xmlns="http://www.w3.org/2000/svg">
<path d="M2 5C2 3.34315 3.34315 2 5 2V2H9.25C9.66421 2 10 2.33579 10 2.75V2.75C10 3.16421 9.66421 3.5 9.25 3.5H5V3.5C4.17157 3.5 3.5 4.17157 3.5 5V5V11V11C3.5 11.8284 4.17157 12.5 5 12.5V12.5H9.25C9.66421 12.5 10 12.8358 10 13.25V13.25C10 13.6642 9.66421 14 9.25 14H5V14C3.34315 14 2 12.6569 2 11V11V5V5Z" fill="white"/>
<path d="M13.376 8.41603L10.2773 10.4818C9.94507 10.7033 9.5 10.4651 9.5 10.0657V9.44752C9.5 9.19275 9.30843 8.97871 9.05522 8.95058L5.44478 8.54942C5.19157 8.52129 5 8.30725 5 8.05248V7.94752C5 7.69275 5.19157 7.47871 5.44478 7.45058L9.05522 7.04942C9.30843 7.02129 9.5 6.80725 9.5 6.55248V5.93426C9.5 5.53491 9.94507 5.29672 10.2774 5.51823L13.376 7.58397C13.6728 7.78189 13.6728 8.21811 13.376 8.41603Z" fill="white"/>
</svg>
