

<svg width="16" height="16" viewBox="0 0 16 16" fill="none" xmlns="http://www.w3.org/2000/svg">
<path d="M6 14C3.79086 14 2 12.2091 2 10V10V8L2 7C2 5.89543 2.89543 5 4 5H5L8 5L8 6.5H5L4.5 6.5C3.94772 6.5 3.5 6.94772 3.5 7.5V8V10V10C3.5 11.3807 4.61929 12.5 6 12.5V12.5L10 12.5V12.5C11.3807 12.5 12.5 11.3807 12.5 10V10L12.5 8V7.5C12.5 6.94772 12.0523 6.5 11.5 6.5H11L8 6.5L8 5H11H12C13.1046 5 14 5.89543 14 7V8L14 10V10C14 12.2091 12.2091 14 10 14V14L6 14V14Z" fill="white"/>
<path d="M10.3675 2.12251C11.0804 2.36015 11.6399 2.91956 11.8775 3.63246V3.63246C11.9586 3.87589 12 4.13082 12 4.38743V6L11 5.5V4.70711C11 4.25435 10.8201 3.82014 10.5 3.5V3.5V3.5C10.1799 3.17986 9.74565 3 9.29289 3H6.70711C6.25435 3 5.82014 3.17986 5.5 3.5V3.5V3.5C5.17986 3.82014 5 4.25435 5 4.70711V5.5L4 6V4.38743C4 4.13082 4.04137 3.87589 4.12251 3.63246V3.63246C4.36015 2.91956 4.91956 2.36015 5.63246 2.12251V2.12251C5.87589 2.04137 6.13082 2 6.38743 2L9.61257 2C9.86918 2 10.1241 2.04137 10.3675 2.12251V2.12251Z" fill="white"/>
<path fill-rule="evenodd" clip-rule="evenodd" d="M6.5 7.5C6.22386 7.5 6 7.72386 6 8V10C6 10.2761 6.22386 10.5 6.5 10.5H7V11C7 11.2761 7.22386 11.5 7.5 11.5H9.5C9.77614 11.5 10 11.2761 10 11V9C10 8.72386 9.77614 8.5 9.5 8.5H9V8C9 7.72386 8.77614 7.5 8.5 7.5H6.5Z" fill="white"/>
</svg>
