<!--
  - Copyright ©2023 @Ewsgit and YourDash contributors.
  - YourDash is licensed under the MIT License. (https://ewsgit.mit-license.org)
  -->

<svg width="100" height="20" viewBox="0 0 100 20" fill="none" xmlns="http://www.w3.org/2000/svg">
<g clip-path="url(#clip0_805_38)">
<path d="M9.44721 1.10557C9.786 0.428006 10.4785 0 11.2361 0H16.7639C18.2507 0 19.2177 1.56463 18.5528 2.89443L10.5528 18.8944C10.214 19.572 9.52148 20 8.76393 20H3.23607C1.7493 20 0.782313 18.4354 1.44721 17.1056L9.44721 1.10557Z" fill="url(#paint0_linear_805_38)" fill-opacity="0.8"/>
<path d="M29.4472 1.10557C29.786 0.428006 30.4785 0 31.2361 0H36.7639C38.2507 0 39.2177 1.56463 38.5528 2.89443L30.5528 18.8944C30.214 19.572 29.5215 20 28.7639 20H23.2361C21.7493 20 20.7823 18.4354 21.4472 17.1056L29.4472 1.10557Z" fill="url(#paint1_linear_805_38)" fill-opacity="0.8"/>
<path d="M49.4472 1.10557C49.786 0.428006 50.4785 0 51.2361 0H56.7639C58.2507 0 59.2177 1.56463 58.5528 2.89443L50.5528 18.8944C50.214 19.572 49.5215 20 48.7639 20H43.2361C41.7493 20 40.7823 18.4354 41.4472 17.1056L49.4472 1.10557Z" fill="url(#paint2_linear_805_38)" fill-opacity="0.8"/>
<path d="M69.4472 1.10557C69.786 0.428006 70.4785 0 71.2361 0H76.7639C78.2507 0 79.2177 1.56463 78.5528 2.89443L70.5528 18.8944C70.214 19.572 69.5215 20 68.7639 20H63.2361C61.7493 20 60.7823 18.4354 61.4472 17.1056L69.4472 1.10557Z" fill="url(#paint3_linear_805_38)" fill-opacity="0.8"/>
<path d="M89.4472 1.10557C89.786 0.428006 90.4785 0 91.2361 0H96.7639C98.2507 0 99.2177 1.56463 98.5528 2.89443L90.5528 18.8944C90.214 19.572 89.5215 20 88.7639 20H83.2361C81.7493 20 80.7823 18.4354 81.4472 17.1056L89.4472 1.10557Z" fill="url(#paint4_linear_805_38)" fill-opacity="0.8"/>
</g>
<defs>
<linearGradient id="paint0_linear_805_38" x1="10" y1="0" x2="10" y2="20" gradientUnits="userSpaceOnUse">
<stop stop-color="white"/>
<stop offset="0.114583" stop-color="white" stop-opacity="0.9"/>
<stop offset="1" stop-color="white" stop-opacity="0.59"/>
</linearGradient>
<linearGradient id="paint1_linear_805_38" x1="30" y1="0" x2="30" y2="20" gradientUnits="userSpaceOnUse">
<stop stop-color="white"/>
<stop offset="0.114583" stop-color="white" stop-opacity="0.9"/>
<stop offset="1" stop-color="white" stop-opacity="0.59"/>
</linearGradient>
<linearGradient id="paint2_linear_805_38" x1="50" y1="0" x2="50" y2="20" gradientUnits="userSpaceOnUse">
<stop stop-color="white"/>
<stop offset="0.114583" stop-color="white" stop-opacity="0.9"/>
<stop offset="1" stop-color="white" stop-opacity="0.59"/>
</linearGradient>
<linearGradient id="paint3_linear_805_38" x1="70" y1="0" x2="70" y2="20" gradientUnits="userSpaceOnUse">
<stop stop-color="white"/>
<stop offset="0.114583" stop-color="white" stop-opacity="0.9"/>
<stop offset="1" stop-color="white" stop-opacity="0.59"/>
</linearGradient>
<linearGradient id="paint4_linear_805_38" x1="90" y1="0" x2="90" y2="20" gradientUnits="userSpaceOnUse">
<stop stop-color="white"/>
<stop offset="0.114583" stop-color="white" stop-opacity="0.9"/>
<stop offset="1" stop-color="white" stop-opacity="0.59"/>
</linearGradient>
<clipPath id="clip0_805_38">
<rect width="100" height="20" fill="white"/>
</clipPath>
</defs>
</svg>
